<?xml version="1.0" encoding="utf-8"?>
<!-- Generator: Adobe Illustrator 21.0.0, SVG Export Plug-In . SVG Version: 6.00 Build 0)  -->
<svg version="1.1" id="Layer_1" xmlns="http://www.w3.org/2000/svg" xmlns:xlink="http://www.w3.org/1999/xlink" x="0px" y="0px"
	 viewBox="0 0 232.3 52.8" style="enable-background:new 0 0 232.3 52.8;" xml:space="preserve">
<style type="text/css">
	.st0{fill:#6B11FF;}
	.st1{fill:url(#SVGID_1_);}
	.st2{fill:#FFFFFF;}
</style>
<g>
	<circle class="st0" cx="205.9" cy="26.4" r="26.4"/>
	<linearGradient id="SVGID_1_" gradientUnits="userSpaceOnUse" x1="208.2653" y1="28.497" x2="219.4337" y2="50.2301">
		<stop  offset="0" style="stop-color:#000000;stop-opacity:0.4"/>
		<stop  offset="1" style="stop-color:#000000;stop-opacity:0"/>
	</linearGradient>
	<path class="st1" d="M231.2,34.1L222,20.3l-29.8,16L203,52.7c0.9,0.1,1.9,0.2,2.9,0.2C217.8,52.8,227.9,45,231.2,34.1z"/>
	<g>
		<polygon class="st0" points="206,32.3 215.3,38.7 218.8,33.3 206,24.5 193.3,33.3 196.8,38.7 		"/>
		<polygon class="st0" points="193.3,20.9 196.8,26.3 206,19.9 215.3,26.3 218.8,20.9 206,12.1 		"/>
	</g>
	<path class="st2" d="M206,12.1l12.7,8.8l-3.5,5.3l-9.3-6.3l-9.3,6.4l-3.5-5.4L206,12.1 M206,24.5l12.7,8.8l-3.5,5.3l-9.3-6.3
		l-9.3,6.3l-3.5-5.3L206,24.5 M206,9.2l-1.4,1L191.9,19l-1.9,1.3l1.3,2l3.5,5.4l0.8,1.2l-3.6,2.5l-1.9,1.3l1.3,2l3.5,5.3l1.3,2.1
		l2-1.4l7.9-5.4l7.9,5.4l2,1.4l1.3-2.1l3.5-5.3l1.3-2l-1.9-1.3l-3.6-2.5l0.8-1.3l3.5-5.3l1.3-2l-1.9-1.3l-12.7-8.8L206,9.2L206,9.2z
		"/>
	<g>
		<path class="st0" d="M52.8,45.3H40.3l-7.4-22.9h-0.2l-7.3,22.9H13L0,7.8h13.4L19.9,32h0.2l6.7-24.1h12.5l7,24.1h0.2L53,7.8h12.9
			L52.8,45.3z"/>
		<path class="st0" d="M70.8,45.3V7.8h12.7v37.4H70.8z"/>
		<path class="st0" d="M115.2,19c-2-1.9-4.8-3.4-7.9-3.4c-2.3,0-4.7,0.8-4.7,3c0,2.1,2,2.7,6.9,3.8c5.7,1.3,12,4.2,12,11.5
			c0,9.5-8.4,12.9-16.1,12.9c-6.1,0-12.5-2-16.4-5.8l7-7.3c2.2,2.4,5.6,4.2,9.2,4.2c2,0,4.5-0.8,4.5-3.3c0-2.3-2.3-3.1-7.5-4.3
			c-5.2-1.2-11-3.9-11-11c0-9,8.5-12.6,15.7-12.6c5.6,0,11.4,1.8,15.1,5.3L115.2,19z"/>
		<path class="st0" d="M166,30.2h-27.3c0.4,4.2,4.5,7.1,9,7.1c3.9,0,6.7-1.7,8.3-3.9l8.6,5.4c-3.6,5.1-9.5,8-17.1,8
			c-11.3,0-20.7-7.2-20.7-19.9c0-12.3,8.9-20.2,20.3-20.2c11.1,0,18.9,7.7,18.9,20.5C166.1,28.2,166.1,29,166,30.2z M154.7,22.3
			c0-3.6-2.5-7.2-7.4-7.2c-4.8,0-8.2,3.6-8.5,7.2H154.7z"/>
	</g>
</g>
</svg>
